<?xml version="1.0" encoding="utf-8"?>
<!-- Svg Vector Icons : http://www.onlinewebfonts.com/icon -->
<!DOCTYPE svg PUBLIC "-//W3C//DTD SVG 1.1//EN" "http://www.w3.org/Graphics/SVG/1.1/DTD/svg11.dtd">
<svg version="1.1" xmlns="http://www.w3.org/2000/svg" xmlns:xlink="http://www.w3.org/1999/xlink" x="0px" y="0px" viewBox="0 0 1000 1000" enable-background="new 0 0 1000 1000" xml:space="preserve">
<metadata> Svg Vector Icons : http://www.onlinewebfonts.com/icon </metadata>
<g><g transform="translate(0.000000,511.000000) scale(0.100000,-0.100000)"><path d="M4064.5,4983.2c-64.5-43-73.1-118.2-73.1-657.7v-548.1l-122.5-36.5c-148.3-43-543.8-206.4-647-266.5c-38.7-23.6-81.7-43-94.6-43c-12.9,0-202.1,178.4-421.3,397.7c-307.4,305.2-412.7,397.7-453.5,397.7c-43,0-197.8-141.9-705-651.3C995,3025,896.1,2915.4,896.1,2863.8c0-51.6,66.6-131.1,399.8-466.4l402-404.1l-90.3-182.7c-94.6-193.5-178.4-406.3-230-576.1l-32.2-103.2h-546c-363.3,0-563.2-8.6-599.7-23.6c-30.1-15-64.5-53.7-77.4-90.3c-30.1-90.3-30.1-1736.8,2.1-1805.6c43-92.4,96.7-101,672.8-101h541.7l70.9-208.5c38.7-116.1,120.4-311.7,178.4-434.2l105.3-221.4l-397.7-404.1c-335.3-337.5-399.8-412.7-399.8-464.3c0-53.7,94.6-159.1,651.3-713.6c548.1-548.1,659.9-649.2,711.5-649.2c51.6,0,131.1,68.8,464.3,399.8l404.1,397.7l221.4-105.3c122.5-60.2,318.1-139.7,434.2-178.4l208.5-70.9v-541.7c0-576.1,8.6-629.8,101-672.8c73.1-32.2,1745.4-32.2,1818.5,0c92.4,43,101,96.7,101,672.8v543.8L6214-3473c111.8,36.5,307.4,116.1,434.2,176.3l232.2,107.5l399.8-397.7c339.6-335.3,410.6-397.7,464.3-397.7c53.7,0,152.6,90.3,713.7,651.3c490.1,492.2,649.1,664.2,649.1,702.9c0,38.7-103.2,154.8-397.7,451.4c-219.2,219.3-397.7,412.7-397.7,429.9s19.4,62.3,40.8,98.9c62.3,103.2,182.7,386.9,249.3,584.7l58.1,176.3h567.4c533.1,0,569.6,2.1,608.3,40.8c23.6,23.6,49.5,75.2,55.9,113.9c6.5,38.7,10.7,451.4,6.5,913.5l-6.5,842.6l-49.4,49.4c-47.3,49.4-58.1,49.4-616.9,55.9l-567.5,6.5l-55.9,176.3c-32.2,96.7-111.8,290.2-178.4,429.9l-120.4,253.6l402,401.9c337.5,339.6,401.9,414.9,401.9,466.4c0,53.7-94.6,159.1-651.3,713.6c-494.4,496.5-662.1,651.3-702.9,651.3c-38.7,0-154.7-103.2-460-406.3l-410.5-406.3l-227.8,111.8c-124.7,62.3-322.4,144-436.4,182.7l-206.3,70.9v554.6c0,526.6-2.1,556.7-45.1,610.5l-43,55.9H5006C4500.9,5000.4,4077.4,4991.8,4064.5,4983.2z M5689.5,4175c0-634.1-12.9-604,290.2-690c236.4-68.8,505.1-180.6,724.4-305.2c92.4-49.4,191.3-92.4,223.5-92.4c45.2,0,137.6,77.4,442.8,380.5l384.7,380.5l488-487.9l487.9-487.9l-382.6-382.6C8051.8,2191,7968,2094.3,7968,2051.3c0-32.2,38.7-124.7,86-206.3c111.8-193.5,240.8-500.8,311.7-745.9c30.1-105.3,70.9-208.5,90.3-230c32.2-34.4,81.7-38.7,580.4-38.7h543.8V131.8v-698.6h-515.9c-522.3,0-606.1-10.8-634.1-83.8c-8.6-19.3-38.7-116.1-66.6-217.1c-66.6-230-180.6-498.7-303.1-713.6c-49.5-92.4-92.5-191.3-92.5-223.5c0-45.1,77.4-137.6,380.5-442.8l380.4-384.7L8241-3120.4l-488-487.9l-382.6,382.6c-311.7,309.5-393.4,380.5-442.8,380.5c-32.2,0-124.6-38.7-202-83.8c-189.2-109.6-507.3-245-735.2-311.7c-101-27.9-199.9-58-219.2-66.6c-68.8-27.9-81.7-135.4-81.7-647v-503h-685.7H4316l-6.5,537.4c-8.6,632,8.6,593.3-285.9,677.1c-238.6,68.8-505.1,180.6-724.4,305.2c-92.4,49.4-193.5,92.4-225.7,92.4c-45.1,0-133.3-75.2-440.6-380.5l-382.6-382.6l-483.6,483.6c-266.5,266.5-483.6,492.2-483.6,505.1c0,12.9,169.8,191.3,376.2,397.7c260.1,260.1,376.2,391.2,376.2,423.5c0,25.8-34.4,107.5-79.5,180.5c-105.3,182.7-227.8,470.8-296.6,700.8c-83.8,277.3-94.6,298.8-152.6,326.7c-34.4,15-232.1,23.6-567.5,23.6H423.2v698.6v698.6h543.8c632,0,584.7-17.2,659.9,236.4c75.2,255.8,206.4,578.2,311.7,760.9c53.7,92.4,96.7,193.5,96.7,223.5c0,43-86,141.9-380.5,438.5l-382.6,382.6l490.1,487.9l487.9,490.1l382.6-382.6c255.8-253.7,397.7-380.5,429.9-380.5c23.6,0,165.5,62.3,316,139.7c159.1,81.7,386.9,176.3,554.6,227.9c156.9,49.4,303.1,109.6,326.7,131.1c40.8,36.5,43,73.1,49.4,576.1l6.5,537.4h687.8h685.7V4175z"/><path d="M4662.1,2614.5c-881.3-124.7-1646.5-717.9-1981.9-1536.9c-137.6-333.2-180.6-552.4-180.6-935c-2.2-451.4,58-733,234.3-1107c236.4-496.5,685.7-945.8,1182.2-1182.2c374-176.3,655.6-236.4,1107-234.3c273,0,369.7,10.7,535.2,49.5c745.9,182.7,1334.8,642.7,1674.5,1306.9c376.2,735.1,376.2,1556.3,0,2291.4c-174.1,339.6-382.6,593.3-672.8,819c-451.4,352.5-915.7,522.3-1472.4,539.5C4928.6,2629.5,4737.3,2625.2,4662.1,2614.5z M5444.5,2283.4C6646.1,2029.8,7411.3,864.8,7161.9-330.4c-137.6-659.9-578.2-1229.5-1182.2-1526.2c-556.7-273-1167.2-305.2-1749.7-92.4l-92.4,34.4l348.2,348.2L4834-1216l251.5,8.6c427.8,19.3,735.1,150.5,1036,447.1c283.8,279.4,442.8,623.4,464.3,1001.7c21.5,356.8-49.5,567.5-193.5,567.5c-55.9,0-129-64.5-498.7-432.1L5459.5-53.1l-227.8,77.4L5006,103.8l-77.4,217.1c-43,120.4-77.4,227.8-77.4,240.7c0,10.7,193.4,215,429.9,451.4c236.4,238.6,429.9,449.2,429.9,468.6c0,148.3-139.7,208.5-481.5,208.5c-266.5,0-442.8-40.8-668.5-150.5c-535.2-260.1-877-795.3-879.1-1380V-48.8l-350.4-350.4c-191.3-191.3-354.7-341.8-361.1-335.3c-36.5,36.6-124.7,356.8-154.8,565.3c-62.3,417,8.6,857.6,197.8,1251c324.6,668.5,958.7,1128.5,1698.1,1229.5C4900.7,2337.2,5248.9,2324.3,5444.5,2283.4z M4866.3,1028.1c-197.8-199.9-359-376.2-359-395.5c0-64.5,238.6-715.8,275.1-750.2c19.4-19.3,193.5-90.3,384.8-159.1c298.8-105.3,354.7-118.2,397.7-96.7c27.9,15,202,176.3,389.1,361.1c376.2,374,376.2,374,294.5,60.2c-60.2-236.4-159.1-408.4-333.2-584.6c-268.7-268.7-589-389.1-967.3-365.4l-212.8,12.9l-436.4-434.2l-434.2-434.2l-81.7,55.9c-163.4,107.5-352.5,281.6-481.5,440.6c-70.9,90.3-135.4,178.4-141.9,195.6c-8.6,17.2,146.2,189.2,410.6,453.6c232.2,232.1,423.5,438.5,423.5,455.7c2.2,17.2,2.2,131.1,0,255.8c-6.5,333.2,64.5,554.6,260.1,812.5c197.7,255.8,595.4,470.8,887.7,475l83.8,2.1L4866.3,1028.1z"/></g></g>
</svg>